<mxfile host="app.diagrams.net" modified="2023-05-07T03:15:33.367Z" agent="Mozilla/5.0 (Windows NT 10.0; Win64; x64) AppleWebKit/537.36 (KHTML, like Gecko) Chrome/112.0.0.0 Safari/537.36" etag="zP0pSxoDYE-76rOearbm" version="21.2.9" type="github">
  <diagram name="Page-1" id="0oWSdbC4oXfueJ1skG5o">
    <mxGraphModel dx="1434" dy="764" grid="1" gridSize="10" guides="1" tooltips="1" connect="1" arrows="1" fold="1" page="1" pageScale="1" pageWidth="850" pageHeight="1100" math="0" shadow="0">
      <root>
        <mxCell id="0" />
        <mxCell id="1" parent="0" />
        <mxCell id="sWSDrlq6geYxAhUQGkc7-1" value="&lt;h1&gt;Ransomware&lt;/h1&gt;" style="whiteSpace=wrap;html=1;aspect=fixed;fillColor=#d80073;strokeColor=#A50040;fontColor=#ffffff;" vertex="1" parent="1">
          <mxGeometry x="90" y="40" width="620" height="620" as="geometry" />
        </mxCell>
        <mxCell id="sWSDrlq6geYxAhUQGkc7-2" value="&lt;h2&gt;Privilege Level&lt;/h2&gt;" style="ellipse;whiteSpace=wrap;html=1;aspect=fixed;dashed=1;fillColor=#fff2cc;strokeColor=#d6b656;" vertex="1" parent="1">
          <mxGeometry x="110" y="80" width="120" height="120" as="geometry" />
        </mxCell>
        <mxCell id="sWSDrlq6geYxAhUQGkc7-3" value="&lt;h2&gt;RW class (XIP or R-M-W-D)&lt;/h2&gt;" style="ellipse;whiteSpace=wrap;html=1;aspect=fixed;dashed=1;fillColor=#fff2cc;strokeColor=#d6b656;" vertex="1" parent="1">
          <mxGeometry x="250" y="75" width="130" height="130" as="geometry" />
        </mxCell>
      </root>
    </mxGraphModel>
  </diagram>
</mxfile>
